<svg xmlns="http://www.w3.org/2000/svg" style="display:none">
  <!-- Simple geometric pictograms, 16x16 viewBox, filled with currentColor. -->

  <symbol id="icon-dashboard" viewBox="0 0 16 16">
    <rect x="1" y="1" width="6" height="6" rx="1"/>
    <rect x="9" y="1" width="6" height="6" rx="1"/>
    <rect x="1" y="9" width="6" height="6" rx="1"/>
    <rect x="9" y="9" width="6" height="6" rx="1"/>
  </symbol>

  <symbol id="icon-campaigns" viewBox="0 0 16 16">
    <path d="M1 2 L15 8 L1 14 L4 8 Z"/>
  </symbol>

  <symbol id="icon-recurring" viewBox="0 0 16 16">
    <path d="M12.5 4A5.5 5.5 0 0 0 3 3.2V1.5L1.2 3.8 3.5 6V4.2A4 4 0 0 1 11.3 3.1l1.2-1z"/>
    <path d="M3.5 12A5.5 5.5 0 0 0 13 12.8v1.7l1.8-2.3L12.5 10v1.8A4 4 0 0 1 4.7 12.9l-1.2 1z"/>
  </symbol>

  <symbol id="icon-providers" viewBox="0 0 16 16">
    <path d="M6 1h1v3.5H6zM9 1h1v3.5H9z"/>
    <path d="M4 4.5h8v3a4 4 0 0 1-4 4 4 4 0 0 1-4-4z"/>
    <path d="M6.5 11.5h3V13a1.5 1.5 0 0 1-3 0z"/>
    <path d="M7 13h2v2H7z"/>
  </symbol>

  <symbol id="icon-templates" viewBox="0 0 16 16">
    <path d="M3 1h6l4 4v10a1 1 0 0 1-1 1H3a1 1 0 0 1-1-1V2a1 1 0 0 1 1-1z" fill="none" stroke="currentColor" stroke-width="1.2"/>
    <path d="M9 1v4h4" fill="none" stroke="currentColor" stroke-width="1.2"/>
    <path d="M4.5 8.5h7M4.5 11h7" stroke="currentColor" stroke-width="1.1" stroke-linecap="round"/>
  </symbol>

  <symbol id="icon-reports" viewBox="0 0 16 16">
    <rect x="1.5" y="9" width="3" height="6"/>
    <rect x="6.5" y="5" width="3" height="10"/>
    <rect x="11.5" y="2" width="3" height="13"/>
  </symbol>

  <symbol id="icon-api-keys" viewBox="0 0 16 16">
    <circle cx="5" cy="8" r="4" fill="none" stroke="currentColor" stroke-width="2"/>
    <rect x="8" y="7" width="8" height="2"/>
    <rect x="12" y="9" width="2" height="3"/>
  </symbol>

  <symbol id="icon-users" viewBox="0 0 16 16">
    <circle cx="5.5" cy="5" r="2.5"/>
    <path d="M0.5 14.5c0-3 2.2-5 5-5s5 2 5 5z"/>
    <circle cx="12" cy="6" r="2"/>
    <path d="M9.7 9.7c2-.5 4.3.6 5.3 3.3v1.5h-4"/>
  </symbol>

  <symbol id="icon-audit" viewBox="0 0 16 16">
    <path d="M4 1.5h8a1 1 0 0 1 1 1V14a1 1 0 0 1-1 1H4a1 1 0 0 1-1-1V2.5a1 1 0 0 1 1-1z" fill="none" stroke="currentColor" stroke-width="1.3"/>
    <rect x="5.5" y="0.5" width="5" height="2.2" rx="0.5"/>
    <path d="M5 8.5l1.6 1.6L11 6" fill="none" stroke="currentColor" stroke-width="1.3"/>
  </symbol>

  <symbol id="icon-notifications" viewBox="0 0 16 16">
    <path d="M8 1a1 1 0 0 1 1 1v.6c2 .5 3.4 2.4 3.4 4.6v2.6l1.3 1.9H2.3l1.3-1.9V7.2c0-2.2 1.4-4.1 3.4-4.6V2a1 1 0 0 1 1-1z"/>
    <path d="M6 13.2a2 2 0 0 0 4 0z"/>
  </symbol>

  <symbol id="icon-sun" viewBox="0 0 16 16">
    <circle cx="8" cy="8" r="3.3"/>
    <g stroke="currentColor" stroke-width="1.3" stroke-linecap="round">
      <path d="M8 0.8v1.8M8 13.4v1.8M15.2 8h-1.8M2.6 8H0.8M13 3l-1.3 1.3M4.3 11.7L3 13M13 13l-1.3-1.3M4.3 4.3L3 3"/>
    </g>
  </symbol>

  <symbol id="icon-moon" viewBox="0 0 16 16">
    <path d="M13.5 9.8A6 6 0 1 1 6.2 2.5a5 5 0 0 0 7.3 7.3z"/>
  </symbol>

  <symbol id="icon-sign-out" viewBox="0 0 16 16">
    <path d="M6.5 1.5h-4a1 1 0 0 0-1 1v11a1 1 0 0 0 1 1h4" fill="none" stroke="currentColor" stroke-width="1.3"/>
    <path d="M9.5 5l3 3-3 3" fill="none" stroke="currentColor" stroke-width="1.3" stroke-linecap="round" stroke-linejoin="round"/>
    <path d="M4.5 8h8" stroke="currentColor" stroke-width="1.3"/>
  </symbol>

  <symbol id="icon-hamburger" viewBox="0 0 16 16">
    <rect x="1" y="2.5" width="14" height="1.6" rx="0.8"/>
    <rect x="1" y="7.2" width="14" height="1.6" rx="0.8"/>
    <rect x="1" y="11.9" width="14" height="1.6" rx="0.8"/>
  </symbol>

  <symbol id="icon-chevron-left" viewBox="0 0 16 16">
    <path d="M10 2.5 4.5 8l5.5 5.5" fill="none" stroke="currentColor" stroke-width="1.6" stroke-linecap="round" stroke-linejoin="round"/>
  </symbol>
</svg>
